<svg xmlns="http://www.w3.org/2000/svg" viewBox="0 0 80 80" width="16px" height="16px"><path fill="#f5ce85" d="M44.5,65.5V22c0-3.033,2.468-5.5,5.5-5.5h18c1.925,0,3.665,1.14,4.432,2.905l6.224,14.339 c0.561,1.288,0.845,2.653,0.845,4.056V60c0,3.033-2.468,5.5-5.5,5.5H44.5z"/><path fill="#967a44" d="M68,17c1.726,0,3.285,1.022,3.973,2.604l6.224,14.34C78.73,35.168,79,36.465,79,37.8V60 c0,2.757-2.243,5-5,5H45V22c0-2.757,2.243-5,5-5H68 M68,16H50c-3.314,0-6,2.686-6,6v44h30c3.314,0,6-2.686,6-6V37.8 c0-1.464-0.302-2.913-0.885-4.255l-6.224-14.339C72.044,17.259,70.123,16,68,16L68,16z"/><path fill="#c8d1db" d="M63,74.5c-4.687,0-8.5-3.813-8.5-8.5s3.813-8.5,8.5-8.5s8.5,3.813,8.5,8.5S67.687,74.5,63,74.5z"/><path fill="#66798f" d="M63,58c4.411,0,8,3.589,8,8s-3.589,8-8,8s-8-3.589-8-8S58.589,58,63,58 M63,57c-4.971,0-9,4.029-9,9 s4.029,9,9,9s9-4.029,9-9S67.971,57,63,57L63,57z"/><path fill="#66798f" d="M63 63A3 3 0 1 0 63 69A3 3 0 1 0 63 63Z"/><path fill="#dcd5f2" d="M0.5 48.5H44.5V65.5H0.5z"/><path fill="#8b75a1" d="M44,49v16H1V49H44 M45,48H0v18h45V48L45,48z"/><path fill="#8bb7f0" d="M0.5 6.5H44.5V49.5H0.5z"/><path fill="#4e7ab5" d="M44,7v42H1V7H44 M45,6H0v44h45V6L45,6z"/><path fill="#c8d1db" d="M19,74.5c-4.687,0-8.5-3.813-8.5-8.5s3.813-8.5,8.5-8.5s8.5,3.813,8.5,8.5S23.687,74.5,19,74.5z"/><path fill="#66798f" d="M19,58c4.411,0,8,3.589,8,8s-3.589,8-8,8s-8-3.589-8-8S14.589,58,19,58 M19,57c-4.971,0-9,4.029-9,9 s4.029,9,9,9s9-4.029,9-9S23.971,57,19,57L19,57z"/><g><path fill="#66798f" d="M19 63A3 3 0 1 0 19 69A3 3 0 1 0 19 63Z"/></g><path fill="#fff" d="M73 48H79V54H73z"/><path fill="#c74343" d="M0 52H6V58H0z"/><g><path fill="#c2e8ff" d="M58,43.5c-0.827,0-1.5-0.673-1.5-1.5V24c0-0.827,0.673-1.5,1.5-1.5h15.775l4.88,11.244 c0.561,1.288,0.845,2.652,0.845,4.056v5.7H58z"/><path fill="#967a44" d="M73.447,23l4.75,10.944C78.73,35.167,79,36.465,79,37.8V43H58c-0.551,0-1-0.449-1-1V24 c0-0.551,0.449-1,1-1H73.447 M74.103,22H58c-1.105,0-2,0.895-2,2v18c0,1.104,0.895,2,2,2h22v-6.2c0-1.464-0.301-2.913-0.886-4.255 L74.103,22L74.103,22z"/></g></svg>